# xmcd CD database file
# Generated: Wed Jan 2 15:01:40 2002 by KSCD
# 
# Track frame offsets:
#       150
#       14953
#       33509
#       51148
#       64565
#       80608
#       104412
#       122943
#       157455
#
# Disc length: 2305 seconds
#
# Revision: 2
# Processed by: cddbd v1.4PL0 Copyright (c) Steve Scherf et al.
# Submitted via: Kscd 1.3.2
#
DISCID=8208ff09
DTITLE=Kris Kehr and Stone Poets - Kris Kehr and Stone Poets
DYEAR=1900
DGENRE=
TTITLE0=Movin' On
TTITLE1=Lucky Thirteen
TTITLE2=A Cruel Setting
TTITLE3=Jig's Jig
TTITLE4=Who You Are
TTITLE5=Waiting On You
TTITLE6=Talking to Me
TTITLE7=Mountain Top Blues
TTITLE8=Losing You
EXTD=
EXTT0=
EXTT1=
EXTT2=
EXTT3=
EXTT4=
EXTT5=
EXTT6=
EXTT7=
EXTT8=
PLAYORDER=
